<?xml version="1.0" encoding="UTF-8"?>
<svg version="1.1" xmlns="http://www.w3.org/2000/svg" width="512" height="512">
<path d="M0 0 C0.69193954 0.20373073 1.38387909 0.40746145 2.0967865 0.61736584 C4.38146582 1.29245426 6.66190299 1.9808684 8.94262695 2.66918945 C10.56254874 3.15006198 12.18273809 3.63003395 13.80317688 4.10916138 C19.01632154 5.65399768 24.22394342 7.21695125 29.4309082 8.7824707 C31.21173453 9.31746918 32.99257764 9.85241175 34.7734375 10.38729858 C35.65653532 10.65254554 36.53963314 10.91779249 37.4494915 11.19107723 C41.0024134 12.25779139 44.55568352 13.32333911 48.10922623 14.38798332 C49.87427018 14.91693259 51.63915 15.44642984 53.40386581 15.97647285 C63.95897124 19.14372722 74.52075736 22.16146586 85.20043945 24.8840332 C88.15641044 25.66123927 91.11142062 26.44200866 94.0663147 27.22329712 C95.81637314 27.67055223 97.57248327 28.09491809 99.33432007 28.49325562 C113.30957173 31.65541131 119.49667153 38.21937498 127.35864258 50.02310181 C129.03874757 52.53685375 130.84507845 54.9394072 132.6809082 57.34106445 C133.70422599 58.73638118 134.72513871 60.13346559 135.7434082 61.5324707 C136.91267465 63.127526 138.08194561 64.72257799 139.2512207 66.31762695 C140.41538839 67.90999798 141.57945146 69.50244548 142.7434082 71.0949707 C150.64350108 81.88966839 158.63014503 92.60702283 166.76000977 103.22998047 C172.95357106 111.33661379 179.01303474 119.53833969 185.03100586 127.77587891 C186.61924261 130.02893229 186.61924261 130.02893229 188.19305134 131.61220741 C193.59649526 137.71431932 193.62714391 143.25399662 193.59912109 151.15771484 C193.61766647 152.45152069 193.63621185 153.74532654 193.65531921 155.07833862 C193.70380862 158.60995378 193.71399867 162.14066413 193.71401906 165.67257619 C193.7167631 168.63416269 193.73640552 171.59555253 193.75531286 174.55707258 C193.79889633 181.5557455 193.80920201 188.55394838 193.80029297 195.55273438 C193.7918704 202.73697628 193.84623284 209.91884049 193.93083769 217.10253626 C194.00114628 223.29833347 194.02818837 229.49336636 194.02240366 235.68955702 C194.01959192 239.37786238 194.03302912 243.06418149 194.0898304 246.75209236 C194.49231142 274.91446177 194.49231142 274.91446177 184.46725464 285.38160706 C183.11895065 286.72472206 183.11895065 286.72472206 181.7434082 288.0949707 C180.46788222 289.81536779 179.22033977 291.5577189 178.02856445 293.3371582 C177.22684814 294.48704224 177.22684814 294.48704224 176.40893555 295.66015625 C175.87993652 296.42239502 175.3509375 297.18463379 174.8059082 297.9699707 C173.61217866 299.68240611 172.41816333 301.39464234 171.22387695 303.10668945 C170.64041504 303.94377441 170.05695313 304.78085937 169.45581055 305.64331055 C166.85607606 309.36537124 164.23874408 313.07489614 161.6184082 316.7824707 C161.13122314 317.47195801 160.64403809 318.16144531 160.14208984 318.87182617 C159.16523418 320.25406801 158.18826534 321.63622989 157.21118164 323.01831055 C154.72019834 326.54264586 152.23195917 330.06891771 149.7434082 333.5949707 C148.74342098 335.01164639 147.74342099 336.42831306 146.7434082 337.8449707 C146.2484082 338.5462207 145.7534082 339.2474707 145.2434082 339.9699707 C143.7434082 342.0949707 142.2434082 344.2199707 140.7434082 346.3449707 C140.24784424 347.0471875 139.75228027 347.7494043 139.24169922 348.47290039 C138.24803552 349.8802533 137.25373866 351.28715939 136.25878906 352.69360352 C133.65630025 356.37423577 131.06738336 360.06348781 128.49731445 363.7668457 C127.69583984 364.91636719 127.69583984 364.91636719 126.87817383 366.08911133 C125.86103266 367.54848779 124.84774367 369.01055993 123.83911133 370.47583008 C123.37569336 371.13905273 122.91227539 371.80227539 122.43481445 372.4855957 C122.03464111 373.06341797 121.63446777 373.64124023 121.22216797 374.23657227 C116.12398533 380.64359988 111.2879326 382.76506103 103.69262695 385.3605957 C102.58619843 385.75159454 101.4797699 386.14259338 100.33981323 386.54544067 C96.70807335 387.82538527 93.06966914 389.08514045 89.4309082 390.3449707 C86.90884458 391.22982134 84.38722374 392.11583238 81.86621094 393.00366211 C76.69935048 394.82137826 71.52955032 396.63046935 66.35766602 398.43383789 C59.21499847 400.9253789 52.08281579 403.44593295 44.9543457 405.9777832 C43.87459976 406.36123901 42.79485382 406.74469482 41.68238831 407.13977051 C39.57246042 407.88920059 37.46256082 408.6387103 35.35269165 409.38830566 C32.39131239 410.43965062 29.42926123 411.48907033 26.46679688 412.53735352 C25.54121475 412.86489624 24.61563263 413.19243896 23.66200256 413.52990723 C21.87209018 414.1622737 20.08168965 414.79326054 18.29075623 415.42272949 C14.13971982 416.88312031 9.99927014 418.36415034 5.87573242 419.90063477 C4.72294044 420.32428818 4.72294044 420.32428818 3.54685974 420.75650024 C2.12923692 421.27845781 0.71469924 421.80892101 -0.69566345 422.35018921 C-10.10748028 425.7893024 -17.49970849 423.10954479 -26.69799805 420.2824707 C-28.04339566 419.87694668 -29.38907047 419.47234131 -30.73500061 419.06858826 C-34.35030407 417.98142262 -37.96196998 416.88265393 -41.5727005 415.78040695 C-47.62271188 413.93438079 -53.67626278 412.09995913 -59.72991943 410.26592827 C-61.2700853 409.79913472 -62.81010338 409.33185327 -64.34997559 408.86409187 C-74.35652387 405.82616495 -84.38514542 402.89966234 -94.46687889 400.12147141 C-98.7805287 398.92895238 -103.0871654 397.7111427 -107.39547729 396.49951172 C-109.70025618 395.86017078 -112.00880902 395.23426646 -114.32107544 394.62255859 C-135.74717524 388.94531852 -135.74717524 388.94531852 -141.79272461 379.67626953 C-142.27580078 378.82444092 -142.75887695 377.9726123 -143.2565918 377.0949707 C-144.07755817 375.95221322 -144.90994481 374.81744339 -145.76049805 373.6965332 C-146.43983398 372.71426758 -147.11916992 371.73200195 -147.8190918 370.7199707 C-152.06475941 364.6651674 -156.50851847 358.7766145 -161.0065918 352.9074707 C-167.9606311 343.82697613 -174.78404759 334.65950424 -181.54321289 325.43334961 C-183.81070438 322.33873098 -186.08056669 319.24589955 -188.35837364 316.15886402 C-189.5157335 314.58181789 -190.66532881 312.99901584 -191.80378151 311.40826702 C-194.73546951 307.34602298 -197.71931888 303.51690034 -201.16244507 299.87446594 C-213.62128824 286.16391602 -214.46527026 273.12990468 -214.1397481 255.30063796 C-214.08594309 251.61751022 -214.11046423 247.93468496 -214.12289429 244.251297 C-214.13181638 238.07702795 -214.0810454 231.90552755 -213.99243164 225.73193359 C-213.89124201 218.63570131 -213.88276749 211.54395365 -213.92415869 204.44722193 C-213.96242539 197.55888153 -213.93779797 190.67212544 -213.88431931 183.78392982 C-213.86263412 180.87926886 -213.8615892 177.97575297 -213.87810135 175.0710659 C-213.94760188 158.26167915 -213.41559528 146.41651528 -201.2565918 134.0949707 C-199.83458769 132.15605169 -198.4429006 130.19390947 -197.10424805 128.1965332 C-196.479375 127.29435059 -195.85450195 126.39216797 -195.21069336 125.46264648 C-194.58646484 124.55756348 -193.96223633 123.65248047 -193.3190918 122.7199707 C-191.94064025 120.73007231 -190.56173038 118.74049133 -189.18237305 116.7512207 C-188.5167334 115.79086914 -187.85109375 114.83051758 -187.1652832 113.84106445 C-183.04299142 107.91019492 -178.86612457 102.0178294 -174.69213867 96.12329102 C-172.21009164 92.61634429 -169.73369856 89.10540776 -167.2565918 85.5949707 C-166.25661734 84.17828601 -165.25661737 82.76161931 -164.2565918 81.3449707 C-163.7615918 80.6437207 -163.2665918 79.9424707 -162.7565918 79.2199707 C-161.2565918 77.0949707 -159.7565918 74.9699707 -158.2565918 72.8449707 C-157.76102783 72.14259277 -157.26546387 71.44021484 -156.75488281 70.71655273 C-155.76183312 69.31039308 -154.76754369 67.90510807 -153.77197266 66.50073242 C-151.15441033 62.80479454 -148.5647042 59.09284352 -146.01049805 55.3527832 C-145.47618164 54.57741211 -144.94186523 53.80204102 -144.39135742 53.00317383 C-143.37028776 51.5204031 -142.35679596 50.0323749 -141.35229492 48.53833008 C-140.88887695 47.86866211 -140.42545898 47.19899414 -139.94799805 46.5090332 C-139.54782471 45.9207373 -139.14765137 45.33244141 -138.73535156 44.72631836 C-134.29429699 39.82700737 -127.4941795 38.2637785 -121.43237305 36.1730957 C-120.3542485 35.79613052 -119.27612396 35.41916534 -118.16532898 35.03077698 C-115.84396803 34.2197435 -113.52173611 33.41119949 -111.19873047 32.60488892 C-106.30494158 30.90615956 -101.41537886 29.19542693 -96.52560425 27.48518372 C-94.04007469 26.61592463 -91.5543353 25.74726528 -89.06838989 24.87919617 C-78.65870482 21.24274813 -68.26592324 17.56046168 -57.88354492 13.84683228 C-55.28188393 12.91651482 -52.67944952 11.98838741 -50.0769043 11.06054688 C-43.04252077 8.54937038 -36.01716356 6.02156702 -29.02612305 3.3918457 C-27.99293945 3.00536865 -26.95975586 2.6188916 -25.89526367 2.22070312 C-24.11002596 1.54907992 -22.3282354 0.8681545 -20.55151367 0.17431641 C-19.80063477 -0.10839111 -19.04975586 -0.39109863 -18.27612305 -0.68237305 C-17.65842041 -0.92205811 -17.04071777 -1.16174316 -16.40429688 -1.40869141 C-10.66826012 -2.73429817 -5.53708107 -1.65289331 0 0 Z " fill="#2A5274" transform="translate(268.256591796875,46.905029296875)"/>
<path d="M0 0 C6.09798867 3.98984227 12.02844776 8.15131964 17.875 12.5 C19.54815876 13.73830601 21.22133638 14.97658653 22.89453125 16.21484375 C24.16417725 17.15626221 24.16417725 17.15626221 25.45947266 18.11669922 C29.48964939 21.1042817 33.52510505 24.08468155 37.5625 27.0625 C38.34802246 27.64193359 39.13354492 28.22136719 39.94287109 28.81835938 C46.01056204 33.28705586 52.11479728 37.7033514 58.23071289 42.10571289 C64.4862521 46.61431413 70.69318346 51.18680605 76.89453125 55.76953125 C82.96259296 60.24857516 89.06956874 64.67108809 95.19091797 69.0769043 C103.8453546 75.31456892 112.423449 81.655879 121 88 C118.95209093 97.04140459 116.19730147 105.74831332 113.21856689 114.51321411 C111.86067259 118.51055063 110.51919097 122.51340226 109.17578125 126.515625 C108.9040509 127.32399307 108.63232056 128.13236115 108.35235596 128.96522522 C105.8859895 136.31285299 103.49273551 143.68244903 101.125 151.0625 C100.31916373 153.57166398 99.51323151 156.08079673 98.70703125 158.58984375 C98.49864624 159.23853928 98.29026123 159.8872348 98.07556152 160.55558777 C95.31286777 169.14821137 92.52044735 177.73119278 89.72723389 186.31393433 C89.13076515 188.14694041 88.53459985 189.98004527 87.93878174 191.81326294 C87.65685974 192.6806308 87.37493774 193.54799866 87.08447266 194.44165039 C86.84000397 195.19402481 86.59553528 195.94639923 86.34365845 196.72157288 C82.61256144 208.16589506 78.80684408 219.57946775 75 231 C25.83 231 -23.34 231 -74 231 C-78.49976326 219.75059185 -78.49976326 219.75059185 -79.95678711 215.20483398 C-80.28986877 214.1717662 -80.62295044 213.13869843 -80.96612549 212.07432556 C-81.49142853 210.42685081 -81.49142853 210.42685081 -82.02734375 208.74609375 C-82.40904724 207.55927505 -82.79075073 206.37245636 -83.184021 205.14967346 C-84.22245123 201.91894222 -85.25780902 198.68725834 -86.29171371 195.45507812 C-87.38138843 192.0506951 -88.47454919 188.64743224 -89.56762695 185.24414062 C-89.78987536 184.55215387 -90.01212378 183.86016712 -90.24110699 183.14721107 C-90.69607428 181.73064059 -91.151053 180.31407377 -91.60604286 178.89751053 C-92.30243571 176.72877636 -92.99831842 174.55987898 -93.69413757 172.39096069 C-96.84695149 162.566993 -100.02272427 152.75065421 -103.21255302 142.93864632 C-103.94744489 140.67763202 -104.68173467 138.41642318 -105.41578674 136.15513611 C-105.65484962 135.41869779 -105.89391249 134.68225946 -106.14021969 133.92350483 C-106.61790445 132.45191761 -107.09556893 130.98032381 -107.57321262 129.50872326 C-108.74348287 125.90404601 -109.91528826 122.29988102 -111.09030151 118.69674683 C-112.19619598 115.30538736 -113.29809194 111.91275407 -114.39707184 108.51914787 C-114.99366689 106.68063013 -115.59463571 104.84353346 -116.19573975 103.00648499 C-116.55226624 101.90348557 -116.90879272 100.80048615 -117.27612305 99.6640625 C-117.58664108 98.70967285 -117.89715912 97.7552832 -118.21708679 96.77197266 C-119.03869246 93.86300597 -119.55702377 90.98812085 -120 88 C-111.75946176 81.14668804 -103.08371774 74.93796155 -94.37451172 68.70117188 C-90.59838575 65.99584124 -86.82951455 63.28049874 -83.0625 60.5625 C-82.32322266 60.02923096 -81.58394531 59.49596191 -80.82226562 58.9465332 C-74.55267439 54.41600716 -68.32663188 49.82773541 -62.10571289 45.23071289 C-56.02455095 40.74183637 -49.90404491 36.31009187 -43.76953125 31.89453125 C-37.52801461 27.39584648 -31.3346417 22.83390248 -25.1472168 18.26123047 C-16.81210825 12.1086532 -8.41150912 6.04752996 0 0 Z " fill="#427CAE" transform="translate(258,129)"/>
<path d="M0 0 C0.61874339 0.14091379 1.23748678 0.28182758 1.87497997 0.42701149 C2.68622483 0.60994444 3.49746969 0.79287739 4.33329773 0.98135376 C5.13766612 1.16351755 5.94203451 1.34568134 6.7707777 1.53336525 C9.12625365 2.0264282 11.43371184 2.28079983 13.83203125 2.4609375 C19.77162282 3.3600905 24.60139911 4.74038836 29 9 C34.78018668 18.30814525 37.09595209 30.02483424 39.81811523 40.51977539 C44.22785867 57.46631379 50.25004017 74.05372418 55.7097168 90.68139648 C63.10901963 113.22478538 63.10901963 113.22478538 66.06713867 123.00463867 C67.20533038 126.65930343 68.42454636 130.28348533 69.6484375 133.91015625 C70.32788322 135.9416774 71.00616982 137.97358189 71.68408203 140.00561523 C72.1506497 141.39460202 72.62212997 142.78194691 73.09814453 144.16772461 C73.79544549 146.20250664 74.47359273 148.24283462 75.1484375 150.28515625 C75.75437744 152.07771851 75.75437744 152.07771851 76.37255859 153.90649414 C77 157 77 157 76.24926758 159.22363281 C75.83700928 159.80983398 75.42475098 160.39603516 75 161 C73.94232422 162.55267578 73.94232422 162.55267578 72.86328125 164.13671875 C72.01647238 165.32278438 71.16604857 166.50627531 70.3125 167.6875 C69.86986816 168.30383301 69.42723633 168.92016602 68.97119141 169.55517578 C65.43000553 174.46160729 61.77714247 179.27231836 58 184 C53.61288392 179.89776159 50.19127212 175.36523786 46.6875 170.5 C41.54251383 163.43319403 36.31744517 156.4379569 31 149.5 C25.2378293 141.97186807 19.55576509 134.39124235 13.95507812 126.7421875 C13.43494141 126.03191406 12.91480469 125.32164062 12.37890625 124.58984375 C11.88491333 123.88582932 11.39092041 123.18181488 10.88195801 122.45646667 C9.04970627 119.94108079 9.04970627 119.94108079 6.73217773 117.79853821 C-2.67299986 107.81382891 -1.14661921 96.19729121 -0.87890625 83.203125 C-0.862097 80.79891351 -0.84929679 78.39467096 -0.84031677 75.99041748 C-0.80613584 69.69650487 -0.71788678 63.40449477 -0.61798096 57.11132812 C-0.52551646 50.67604298 -0.48472423 44.24044704 -0.43945312 37.8046875 C-0.34325323 25.20231855 -0.19162937 12.60126099 0 0 Z " fill="#0B8ABC" transform="translate(83,214)"/>
<path d="M0 0 C1.28270279 -0.0216069 2.56540558 -0.04321381 3.88697815 -0.06547546 C5.32203405 -0.08426728 6.75709277 -0.10284522 8.19215393 -0.12123108 C9.69330199 -0.1438529 11.19444635 -0.16672142 12.69558716 -0.18981934 C26.43020921 -0.39234815 40.16615543 -0.50408256 53.90193081 -0.59303951 C63.13733302 -0.65415244 72.37089213 -0.74163711 81.60523987 -0.8966217 C89.65998165 -1.03180697 97.71344885 -1.11745664 105.76931149 -1.14344698 C110.03224407 -1.15879869 114.29179813 -1.19809442 118.55369377 -1.29632378 C122.5711453 -1.38797265 126.58363126 -1.41255228 130.60199547 -1.38733864 C132.07030444 -1.38958035 133.53881385 -1.41552945 135.00619125 -1.46787262 C145.77675027 -1.83228936 145.77675027 -1.83228936 149.6610806 1.5888679 C152.61445161 4.95663607 154.91121902 8.65637376 157.11531746 12.54287899 C158.46622916 14.83476847 160.06332699 16.89144791 161.7256012 18.96446228 C164.1006012 21.98241808 164.1006012 21.98241808 164.1006012 24.21446228 C163.13686584 24.55066589 162.17313049 24.88686951 161.18019104 25.23326111 C144.55190119 31.0378661 127.9357482 36.86473915 111.4131012 42.96446228 C108.99655546 43.84890735 106.57989045 44.7330266 104.1631012 45.61680603 C99.37924112 47.36775703 94.61257575 49.15884391 89.8506012 50.96836853 C87.53851245 51.82234738 85.22602935 52.67525952 82.9131012 53.52696228 C81.88032043 53.93076111 80.84753967 54.33455994 79.78346252 54.75059509 C72.55137265 57.36836361 67.4616594 57.33994976 60.1006012 55.21446228 C58.91204529 54.87910461 58.91204529 54.87910461 57.69947815 54.53697205 C55.39987858 53.84799455 53.12622113 53.10365758 50.8506012 52.33946228 C44.04982686 50.12455872 37.2404448 48.14040975 30.31544495 46.34336853 C16.4763593 42.69572458 2.75522497 38.49759395 -10.8993988 34.21446228 C-12.34335152 33.76375655 -13.78736633 33.31324973 -15.23143005 32.86289978 C-19.12150522 31.6491491 -23.01066394 30.4324999 -26.8993988 29.21446228 C-22.66401992 22.72472143 -18.20338821 16.43774243 -13.5868988 10.21446228 C-12.95461365 9.35723572 -12.32232849 8.50000916 -11.67088318 7.61680603 C-6.10926069 0.0940112 -6.10926069 0.0940112 0 0 Z " fill="#3A6E9B" transform="translate(188.89939880371094,385.78553771972656)"/>
<path d="M0 0 C9.2486022 2.43038079 18.47380919 4.9403745 27.6875 7.5 C28.71931396 7.78431885 29.75112793 8.0686377 30.81420898 8.36157227 C37.02567736 10.09446583 43.14421866 12.0116995 49.25170898 14.08056641 C52.87201478 15.29173027 56.51964207 16.3810174 60.1875 17.4375 C61.63932411 17.86067298 63.09114699 18.28385019 64.54296875 18.70703125 C66.02862373 19.13809704 67.51430105 19.56908579 69 20 C72.00077731 20.87235642 75.00057461 21.74800827 78 22.625 C78.66926514 22.81892334 79.33853027 23.01284668 80.02807617 23.21264648 C81.34471098 23.59751398 82.6580319 23.99390146 83.96777344 24.40161133 C86.01910429 25.03299932 86.01910429 25.03299932 88.22753906 25.47924805 C95.50460278 27.29696104 98.5567511 31.59697806 102.75 37.5625 C103.43900391 38.50416016 104.12800781 39.44582031 104.83789062 40.41601562 C106.91370474 43.26235354 108.95923503 46.12846772 111 49 C112.11824584 50.55189629 113.23792611 52.1027605 114.359375 53.65234375 C115.93296302 55.82861865 117.50442963 58.0061881 119.06762695 60.18994141 C123.25103358 66.02221182 127.57382681 71.73922186 131.9375 77.4375 C133.94955063 80.0719274 135.96085441 82.70692236 137.97167969 85.34228516 C139.34349302 87.13977672 140.71657527 88.93630047 142.09082031 90.73193359 C144.09216874 93.35499153 146.07903314 95.98840638 148.0625 98.625 C148.67665771 99.42478271 149.29081543 100.22456543 149.92358398 101.04858398 C150.47602783 101.78794189 151.02847168 102.5272998 151.59765625 103.2890625 C152.08758057 103.93568848 152.57750488 104.58231445 153.08227539 105.24853516 C153.53654907 106.11551025 153.53654907 106.11551025 154 107 C153.67 107.99 153.34 108.98 153 110 C148.77254666 112.00232561 144.25568885 113.30018954 139.8125 114.75 C138.57951172 115.17410156 137.34652344 115.59820312 136.07617188 116.03515625 C134.88185547 116.43089844 133.68753906 116.82664062 132.45703125 117.234375 C131.36366455 117.59756836 130.27029785 117.96076172 129.14379883 118.33496094 C125.67971599 119.06775287 123.40952156 118.89150383 120 118 C117.203125 116.171875 117.203125 116.171875 114.25 113.75 C113.10369103 112.83067295 111.9551275 111.91415221 110.8046875 111 C110.19206055 110.51144531 109.57943359 110.02289063 108.94824219 109.51953125 C105.49763475 106.82823041 101.93355062 104.29579174 98.375 101.75 C92.05045405 97.2101963 85.75992352 92.62851839 79.5 88 C73.35997002 83.46231614 67.19654035 78.9602068 61 74.5 C54.80345703 70.03979131 48.64017432 65.53749112 42.5 61 C37.02834269 56.9567297 31.54848871 52.92674524 26.02294922 48.95727539 C24.51530431 47.86629755 23.01672934 46.76266785 21.52783203 45.64624023 C17.97058915 42.99990194 14.55043061 40.69931883 10.5390625 38.796875 C6.1100968 36.52430985 2.34887165 34.55221223 0 30 C-1.82348949 20.15625938 -0.91397086 9.90369449 0 0 Z " fill="#0B8ABC" transform="translate(272,77)"/>
<path d="M0 0 C0.30315182 12.31839145 0.53316307 24.63587527 0.67355824 36.95725727 C0.74099364 42.68078516 0.83222334 48.401735 0.98071289 54.1237793 C1.12349144 59.66133033 1.20000357 65.19642615 1.23340416 70.73567772 C1.25715827 72.83321936 1.30353921 74.93064853 1.37449074 77.0271244 C1.87946832 92.58787784 -1.39540101 101.80588257 -11.27758026 113.86280441 C-14.15819199 117.43709617 -16.78185662 121.19492178 -19.4375 124.9375 C-20.51739843 126.42508259 -21.59789928 127.91222862 -22.6796875 129.3984375 C-27.39179889 135.90243914 -31.97190375 142.49866197 -36.56640625 149.0859375 C-40.35098393 154.51081984 -44.17259247 159.90922674 -48.00170898 165.30273438 C-51.09319217 169.67066344 -54.08095257 174.08734518 -56.9140625 178.62890625 C-57.27242188 179.08136719 -57.63078125 179.53382813 -58 180 C-58.66 180 -59.32 180 -60 180 C-61.66712012 177.86512675 -63.22103371 175.73088412 -64.75 173.5 C-68.00284042 168.7961463 -71.27045204 164.27007136 -75.13671875 160.0390625 C-77.23301885 155.08762064 -74.62974663 148.23796538 -73.05078125 143.3671875 C-72.73105095 142.37245926 -72.73105095 142.37245926 -72.40486145 141.3576355 C-71.61187498 138.90220372 -70.80622316 136.45111741 -70 134 C-69.293381 131.83889205 -68.58684419 129.67775722 -67.88037109 127.51660156 C-65.78078902 121.10572301 -63.67127173 114.69815098 -61.56002808 108.29110718 C-53.57749494 84.06489544 -45.6823244 59.81414685 -37.9753418 35.49853516 C-33.02515436 19.8969497 -33.02515436 19.8969497 -30.75390625 13.26953125 C-30.48006104 12.46749268 -30.20621582 11.6654541 -29.92407227 10.83911133 C-28.43368212 7.87290024 -26.21123397 7.07226425 -23.1796875 6.03515625 C-22.08914063 5.71417969 -20.99859375 5.39320313 -19.875 5.0625 C-15.16890338 3.66168863 -10.52071903 2.18214046 -5.90234375 0.515625 C-4 0 -4 0 0 0 Z " fill="#3A6E9B" transform="translate(434,213)"/>
<path d="M0 0 C2.66709091 24.2789751 2.66709091 24.2789751 -1.37841797 31.43994141 C-5.10771108 35.48334509 -9.74550851 38.05847775 -14.55810547 40.6328125 C-18.60773185 42.90014981 -22.22778321 45.72352989 -25.9375 48.5 C-27.44521423 49.58838885 -28.95564513 50.67302414 -30.46875 51.75390625 C-34.9642087 54.97365281 -39.45322175 58.20220022 -43.9375 61.4375 C-44.67734131 61.97117188 -45.41718262 62.50484375 -46.17944336 63.0546875 C-52.44844821 67.58482942 -58.67393122 72.1726807 -64.89428711 76.76928711 C-70.97250114 81.2559876 -77.08979014 85.68593798 -83.22167969 90.09887695 C-87.93992451 93.49921379 -92.63436679 96.92983046 -97.31152344 100.38647461 C-98.922218 101.57611155 -100.53481632 102.76317571 -102.14941406 103.94750977 C-105.81919209 106.6396205 -109.46693421 109.34998371 -113.0625 112.140625 C-114.29166151 113.07292347 -115.52082785 114.00521556 -116.75 114.9375 C-117.28592773 115.36893311 -117.82185547 115.80036621 -118.37402344 116.24487305 C-121.17843525 118.3419892 -122.77166442 119.00378307 -126.30078125 118.9453125 C-130.76012861 117.80575383 -135.09110771 116.44700449 -139.4375 114.9375 C-140.26443359 114.65583984 -141.09136719 114.37417969 -141.94335938 114.08398438 C-143.96412338 113.39482208 -145.98233282 112.6981769 -148 112 C-148 107.72818037 -145.64020843 105.23465796 -143.25 101.875 C-142.75556396 101.16851318 -142.26112793 100.46202637 -141.75170898 99.73413086 C-140.17466576 97.48450685 -138.58783272 95.24201786 -137 93 C-136.00604285 91.58756851 -135.01254401 90.17481436 -134.01953125 88.76171875 C-131.52520522 85.21667233 -129.02198299 81.6780062 -126.51611328 78.14111328 C-124.50657179 75.30316178 -122.50134324 72.4621792 -120.49658203 69.62084961 C-119.50187316 68.21121894 -118.50675837 66.80187463 -117.51123047 65.39282227 C-114.94214301 61.75615493 -112.37876731 58.1156476 -109.82421875 54.46875 C-109.29892578 53.72044922 -108.77363281 52.97214844 -108.23242188 52.20117188 C-107.24359421 50.79231121 -106.25645271 49.38226464 -105.27148438 47.97070312 C-104.37123442 46.68952935 -103.45945805 45.41635139 -102.53453064 44.15287781 C-101.52956412 42.74295476 -100.56790816 41.30089775 -99.65760803 39.82807922 C-94.7090741 32.42783865 -88.86935275 30.34714851 -80.609375 27.66796875 C-79.28079438 27.21289963 -77.95323631 26.75483563 -76.62664795 26.29399109 C-73.84028748 25.32981879 -71.04940127 24.38088479 -68.25415039 23.44281006 C-64.07464854 22.03422546 -59.920593 20.56038777 -55.77148438 19.06494141 C-55.09471901 18.82109144 -54.41795364 18.57724148 -53.72068024 18.32600212 C-52.35469637 17.83363744 -50.9887524 17.34116208 -49.62284851 16.84857559 C-46.22595119 15.62703177 -42.82399367 14.41980112 -39.421875 13.21289062 C-38.06705217 12.73219216 -36.71223447 12.25147924 -35.35742188 11.77075195 C-34.6836853 11.53169128 -34.00994873 11.29263062 -33.3157959 11.04632568 C-30.49681721 10.04494943 -27.6790882 9.04007905 -24.86128616 8.03539753 C-22.1272498 7.061334 -19.39221696 6.09009405 -16.65688324 5.1196804 C-15.36310579 4.66018083 -14.06968873 4.19966519 -12.77664948 3.73809242 C-10.99961765 3.10408123 -9.2210392 2.47440994 -7.44238281 1.8449707 C-6.43588684 1.48732132 -5.42939087 1.12967194 -4.39239502 0.76118469 C-2 0 -2 0 0 0 Z " fill="#0B8ABC" transform="translate(244,78)"/>
</svg>
